<svg width="121" height="121" viewBox="0 0 121 121" fill="none" xmlns="http://www.w3.org/2000/svg">
<g clipPath="url(#clip0_19_3175)">
<path fill-rule="evenodd" clip-rule="evenodd" d="M47.375 32.3099C43.44 32.3099 40.25 35.5335 40.25 39.5099V97.1099C40.25 101.086 43.44 104.31 47.375 104.31H90.125C94.06 104.31 97.25 101.086 97.25 97.1099V50.3703L79.4375 32.3099H47.375ZM50.9375 63.5099C50.9375 61.5217 52.5325 59.9099 54.5 59.9099H83C84.9675 59.9099 86.5625 61.5217 86.5625 63.5099C86.5625 65.4981 84.9675 67.1099 83 67.1099H54.5C52.5325 67.1099 50.9375 65.4981 50.9375 63.5099ZM54.5 74.3099C52.5325 74.3099 50.9375 75.9217 50.9375 77.9099C50.9375 79.8981 52.5325 81.5099 54.5 81.5099H68.75C70.7175 81.5099 72.3125 79.8981 72.3125 77.9099C72.3125 75.9217 70.7175 74.3099 68.75 74.3099H54.5Z" fill="#252732"/>
<path fill-rule="evenodd" clip-rule="evenodd" d="M33.75 48.3099C29.3317 48.3099 25.75 51.8916 25.75 56.3099V110.31C25.75 114.728 29.3317 118.31 33.75 118.31H70.75C75.1683 118.31 78.75 114.728 78.75 110.31V104.31H47.375C43.44 104.31 40.25 101.086 40.25 97.1099V48.3099H33.75Z" fill="#464855"/>
<path fill-rule="evenodd" clip-rule="evenodd" d="M78.75 104.31V56.3099C78.75 51.8916 75.1683 48.3099 70.75 48.3099H40.25V97.1099C40.25 101.086 43.44 104.31 47.375 104.31H78.75Z" fill="url(#paint0_linear_19_3175)"/>
</g>
<defs>
<linearGradient id="paint0_linear_19_3175" x1="59.25" y1="48.3099" x2="59.25" y2="104.31" gradientUnits="userSpaceOnUse">
<stop stop-color="#464855" stop-opacity="0.8"/>
<stop offset="1" stop-color="#464855" stop-opacity="0.4"/>
</linearGradient>
<clipPath id="clip0_19_3175">
<rect width="120" height="120" fill="white" transform="translate(0.25 0.309937)"/>
</clipPath>
</defs>
</svg>
